<?xml version="1.0" standalone="no"?>
<!DOCTYPE svg PUBLIC "-//W3C//DTD SVG 20010904//EN"
 "http://www.w3.org/TR/2001/REC-SVG-20010904/DTD/svg10.dtd">
<svg version="1.0" xmlns="http://www.w3.org/2000/svg"
 width="1024.000000pt" height="1024.000000pt" viewBox="0 0 1024.000000 1024.000000"
 preserveAspectRatio="xMidYMid meet">

<g transform="translate(0.000000,1024.000000) scale(0.100000,-0.100000)"
fill="#000000" stroke="none">
<path d="M0 5120 l0 -5120 5120 0 5120 0 0 5120 0 5120 -5120 0 -5120 0 0
-5120z m5234 3868 c193 -117 803 -496 1161 -720 198 -123 474 -295 613 -382
l252 -158 0 -986 c0 -543 -4 -992 -8 -998 -22 -34 -26 -34 -2146 -34 l-2095 0
-20 26 c-21 27 -21 28 -19 1008 l3 981 305 193 c429 271 1069 670 1375 858
143 89 301 186 350 217 50 31 99 56 109 56 11 1 65 -27 120 -61z m-2675 -3649
c80 -18 154 -60 222 -128 61 -61 119 -156 119 -195 0 -10 -33 -25 -102 -46
-159 -50 -158 -50 -196 3 -44 62 -105 91 -202 95 -89 4 -132 -14 -168 -68 -46
-67 -13 -169 67 -210 21 -10 102 -37 182 -59 239 -68 346 -133 406 -248 119
-225 33 -487 -196 -603 -90 -45 -161 -60 -282 -60 -187 0 -325 55 -439 176
-60 65 -97 130 -107 188 l-5 35 58 16 c33 9 89 25 126 36 36 10 70 19 75 19 5
0 17 -15 25 -34 48 -99 135 -149 263 -150 67 -1 89 3 129 24 68 35 90 68 90
133 0 89 -55 141 -194 180 -268 77 -317 99 -403 177 -134 123 -172 330 -90
497 46 94 159 182 272 213 109 29 242 33 350 9z m2593 -4 c217 -57 392 -215
468 -425 78 -214 77 -492 -3 -672 -79 -176 -232 -318 -419 -386 -68 -25 -84
-27 -233 -27 -148 0 -166 2 -236 27 -229 81 -392 256 -461 494 -19 66 -23 101
-22 219 1 203 37 341 125 481 97 153 286 273 478 304 75 12 227 4 303 -15z
m1583 0 c165 -43 323 -167 398 -311 20 -40 37 -79 37 -87 0 -8 -12 -19 -27
-25 -36 -14 -248 -82 -256 -82 -4 0 -18 22 -31 48 -30 59 -102 127 -164 155
-73 33 -208 31 -284 -5 -139 -65 -221 -190 -247 -381 -25 -181 41 -366 164
-459 177 -135 421 -86 538 108 17 30 34 54 37 54 24 0 257 -91 265 -104 7 -11
1 -32 -22 -79 -78 -158 -248 -291 -426 -332 -110 -25 -264 -21 -372 10 -128
37 -206 84 -302 180 -67 68 -89 99 -126 176 -66 137 -81 207 -81 374 0 113 5
156 22 223 82 306 296 505 597 553 68 11 207 3 280 -16z m-2571 -27 c20 -28
22 -200 3 -238 l-13 -25 -192 -5 -193 -5 1 -570 c0 -442 -3 -576 -13 -595 -12
-24 -15 -25 -142 -28 -123 -3 -131 -2 -147 19 -17 20 -18 64 -18 600 l0 579
-188 0 c-133 0 -192 4 -200 12 -8 8 -12 51 -12 129 0 94 3 121 16 133 14 14
77 16 549 16 l534 0 15 -22z m3487 -5 c7 -18 9 -124 7 -296 -2 -147 -2 -267
-1 -267 1 0 95 118 209 263 114 144 220 277 237 295 l31 32 168 0 c144 0 170
-2 175 -16 7 -19 7 -20 -255 -343 -117 -145 -211 -270 -208 -277 3 -7 114
-185 247 -396 133 -211 246 -393 252 -405 7 -16 6 -27 -3 -38 -10 -12 -40 -15
-164 -15 -107 0 -157 4 -168 13 -9 6 -82 120 -164 252 -81 132 -164 266 -184
297 l-36 57 -64 -77 -65 -77 -7 -90 c-3 -49 -7 -149 -7 -220 -1 -88 -5 -135
-13 -143 -8 -8 -54 -12 -143 -12 -89 0 -135 4 -143 12 -17 17 -17 1449 0 1466
8 8 56 12 150 12 l138 0 11 -27z m-4717 -1853 c121 -31 208 -82 307 -180 128
-128 186 -255 209 -459 19 -175 -14 -375 -86 -511 -70 -134 -167 -226 -309
-295 -110 -53 -176 -67 -314 -67 -126 1 -194 17 -311 74 -69 33 -101 57 -170
127 -97 99 -144 178 -186 316 -25 81 -27 106 -28 245 -1 175 13 244 70 365 90
192 257 333 458 385 99 26 258 26 360 0z m1956 -10 c127 -43 227 -112 295
-202 51 -68 99 -163 91 -183 -4 -10 -253 -105 -276 -105 -5 0 -18 20 -30 44
-29 61 -94 124 -160 155 -46 22 -69 26 -140 26 -71 -1 -95 -5 -143 -27 -155
-72 -247 -233 -247 -433 0 -218 79 -374 228 -447 60 -30 75 -33 157 -33 74 0
98 4 137 23 66 33 135 97 170 159 16 29 35 53 41 53 17 0 249 -88 259 -98 10
-10 -14 -81 -44 -131 -30 -50 -124 -147 -176 -183 -122 -84 -233 -118 -392
-118 -167 0 -313 51 -437 153 -195 159 -294 455 -249 744 41 272 184 472 408
572 55 24 86 34 173 55 11 3 76 3 145 2 96 -3 140 -9 190 -26z m2385 15 c94
-24 163 -63 224 -125 55 -56 121 -161 121 -193 0 -12 -36 -28 -131 -57 -143
-45 -142 -45 -179 14 -27 45 -108 87 -178 93 -153 14 -243 -74 -197 -193 28
-74 63 -92 305 -159 193 -53 306 -128 360 -238 133 -272 -16 -570 -321 -642
-81 -19 -234 -19 -322 0 -162 34 -317 161 -371 306 -28 75 -26 77 113 115 67
19 127 31 132 28 5 -3 18 -22 28 -42 22 -43 63 -83 107 -105 73 -37 213 -39
281 -4 122 64 112 210 -18 277 -19 10 -89 33 -155 50 -230 60 -354 142 -419
274 -100 200 -23 442 173 549 114 62 316 86 447 52z m-3451 -11 c33 -12 10
-96 -79 -298 l-54 -121 -72 -3 c-40 -2 -76 1 -80 5 -11 11 11 394 24 411 10
13 230 18 261 6z m2580 -16 c23 -32 23 -230 0 -252 -13 -14 -56 -16 -310 -16
l-294 0 0 -155 0 -155 244 0 c134 0 251 -3 260 -6 13 -5 16 -26 16 -128 0 -82
-4 -126 -12 -134 -9 -9 -80 -12 -260 -12 l-248 0 0 -160 0 -160 310 0 c304 0
309 0 321 -21 16 -30 8 -231 -10 -252 -12 -15 -58 -17 -465 -17 -338 0 -455 3
-464 12 -9 9 -12 185 -12 729 0 639 2 719 16 733 14 14 69 16 454 16 l439 0
15 -22z m1750 6 c14 -14 16 -93 16 -725 0 -471 -3 -717 -10 -730 -10 -17 -22
-19 -143 -19 -90 0 -137 4 -145 12 -17 17 -17 1449 0 1466 8 8 54 12 139 12
103 0 131 -3 143 -16z"/>
<path d="M4825 8648 c-391 -244 -1481 -928 -1577 -990 l-78 -51 0 -853 0 -854
335 0 335 0 0 509 c0 486 1 510 19 532 l19 24 321 3 321 3 0 498 0 498 23 21
23 22 553 0 552 0 24 -25 25 -24 0 -495 0 -495 319 -3 c297 -3 320 -4 340 -22
21 -19 21 -23 21 -533 l0 -513 335 0 335 0 0 854 0 854 -187 118 c-253 159
-1700 1062 -1738 1084 l-30 18 -290 -180z"/>
<path d="M4705 7395 l0 -435 172 0 c166 0 172 -1 187 -22 14 -20 16 -87 16
-530 l0 -508 40 0 40 0 0 504 c0 494 0 504 21 530 l20 26 165 0 164 0 0 435 0
435 -90 0 -90 0 0 -124 c0 -119 -1 -126 -26 -155 l-26 -31 -184 0 c-183 0
-185 0 -209 25 -24 23 -25 29 -25 155 l0 130 -87 0 -88 0 0 -435z"/>
<path d="M5050 7760 l0 -70 60 0 60 0 0 70 0 70 -60 0 -60 0 0 -70z"/>
<path d="M4123 6782 l-93 -3 0 -439 0 -440 435 0 435 0 0 440 0 440 -98 0 -99
0 -2 -142 c-2 -197 10 -188 -240 -188 -249 0 -234 -12 -241 187 l-5 148 -92
-3z"/>
<path d="M4400 6700 l0 -80 65 0 65 0 0 80 0 80 -65 0 -65 0 0 -80z"/>
<path d="M5340 6340 l0 -440 435 0 435 0 0 440 0 440 -95 0 -95 0 0 -143 c0
-199 16 -187 -239 -187 -263 0 -247 -12 -244 184 l2 146 -99 0 -100 0 0 -440z"/>
<path d="M5712 6703 l3 -77 63 -1 64 0 1 78 2 77 -68 0 -68 0 3 -77z"/>
<path d="M4859 5047 c-143 -41 -245 -158 -283 -324 -43 -191 4 -384 123 -504
148 -148 412 -144 552 9 143 154 157 470 29 658 -45 69 -89 106 -166 141 -67
30 -185 40 -255 20z"/>
<path d="M2673 3170 c-50 -11 -116 -43 -164 -81 -86 -67 -138 -189 -146 -344
-12 -234 72 -407 235 -483 50 -24 70 -27 157 -27 93 0 105 2 167 33 117 57
184 160 213 328 19 109 19 136 -1 232 -42 208 -173 335 -358 347 -34 2 -80 0
-103 -5z"/>
</g>
</svg>
